<svg width="41" height="34" viewBox="0 0 41 34" fill="none" xmlns="http://www.w3.org/2000/svg">
<path d="M27.0127 34C27.0127 34 30.7342 34 30.7342 30.9092V3.09078C30.7341 0 27.0127 0 27.0127 0H13.9873C13.9873 0 10.2658 0 10.2658 3.09078V30.9092C10.2658 34 13.9873 34 13.9873 34H27.0127ZM20.5 32.7131C19.4729 32.7131 18.6393 32.0217 18.6393 31.17C18.6393 30.3182 19.4729 29.627 20.5 29.627C21.5272 29.627 22.3607 30.3183 22.3607 31.17C22.3607 32.0218 21.5272 32.7131 20.5 32.7131ZM17.7088 1.88408C17.7088 1.69274 17.8186 1.54305 17.9563 1.54305H23.0436C23.1794 1.54305 23.2911 1.69584 23.2911 1.88408V1.97513C23.2911 2.16647 23.1794 2.31616 23.0436 2.31616H17.9563C17.8204 2.31616 17.7088 2.16338 17.7088 1.97513V1.88408ZM12.1266 3.85767H28.8734V28.5468H12.1266V3.85767Z" fill="#2F5FB3"/>
</svg>
